<svg width="408" height="138" viewBox="0 0 408 138" fill="none" xmlns="http://www.w3.org/2000/svg">
<path d="M153.975 116.348L153.988 127.257L152.709 127.258L146.755 118.7L146.648 118.7L146.658 127.265L145.337 127.267L145.325 116.358L146.603 116.356L152.579 124.936L152.685 124.936L152.675 116.349L153.975 116.348ZM159.785 127.421C159.046 127.421 158.398 127.246 157.84 126.896C157.286 126.545 156.852 126.053 156.538 125.422C156.229 124.79 156.073 124.051 156.072 123.206C156.072 122.354 156.225 121.61 156.533 120.974C156.845 120.338 157.278 119.844 157.831 119.491C158.388 119.139 159.036 118.963 159.775 118.962C160.514 118.961 161.16 119.136 161.715 119.487C162.272 119.838 162.706 120.331 163.016 120.966C163.329 121.602 163.486 122.345 163.487 123.198C163.488 124.043 163.333 124.782 163.021 125.414C162.713 126.046 162.28 126.539 161.723 126.891C161.17 127.243 160.523 127.42 159.785 127.421ZM159.783 126.291C160.345 126.291 160.806 126.146 161.168 125.858C161.53 125.57 161.797 125.192 161.971 124.723C162.144 124.254 162.231 123.746 162.23 123.199C162.23 122.652 162.142 122.143 161.967 121.671C161.793 121.198 161.524 120.817 161.162 120.526C160.799 120.235 160.337 120.09 159.776 120.091C159.215 120.092 158.754 120.238 158.392 120.529C158.03 120.821 157.762 121.203 157.589 121.676C157.415 122.148 157.329 122.658 157.33 123.205C157.33 123.752 157.418 124.259 157.592 124.728C157.767 125.196 158.035 125.574 158.398 125.861C158.761 126.149 159.222 126.292 159.783 126.291ZM168.96 119.058L168.961 120.123L164.721 120.128L164.72 119.063L168.96 119.058ZM165.953 117.101L167.21 117.099L167.219 124.898C167.22 125.253 167.271 125.519 167.375 125.697C167.481 125.87 167.616 125.988 167.78 126.048C167.947 126.104 168.123 126.133 168.307 126.132C168.446 126.132 168.559 126.125 168.648 126.111C168.737 126.093 168.808 126.078 168.861 126.068L169.118 127.197C169.033 127.229 168.914 127.261 168.761 127.293C168.609 127.329 168.415 127.347 168.181 127.347C167.826 127.347 167.478 127.271 167.137 127.119C166.799 126.967 166.518 126.735 166.294 126.422C166.074 126.11 165.963 125.716 165.963 125.24L165.953 117.101ZM170.86 127.237L170.851 119.056L172.065 119.054L172.067 120.29L172.152 120.29C172.3 119.885 172.57 119.556 172.96 119.303C173.351 119.051 173.791 118.924 174.281 118.924C174.373 118.924 174.489 118.925 174.627 118.929C174.766 118.932 174.87 118.937 174.941 118.944L174.943 120.223C174.9 120.212 174.803 120.196 174.65 120.175C174.501 120.15 174.343 120.138 174.176 120.138C173.778 120.139 173.423 120.223 173.111 120.39C172.802 120.554 172.557 120.781 172.376 121.073C172.199 121.36 172.111 121.689 172.111 122.058L172.117 127.236L170.86 127.237ZM179.623 127.398C178.834 127.399 178.154 127.225 177.582 126.878C177.013 126.527 176.574 126.038 176.265 125.409C175.958 124.778 175.805 124.043 175.804 123.205C175.803 122.367 175.955 121.628 176.259 120.988C176.568 120.345 176.997 119.844 177.547 119.485C178.1 119.122 178.746 118.94 179.485 118.939C179.911 118.938 180.332 119.009 180.748 119.151C181.163 119.292 181.542 119.523 181.883 119.842C182.224 120.157 182.497 120.576 182.7 121.098C182.903 121.62 183.005 122.262 183.005 123.026L183.006 123.558L176.699 123.566L176.698 122.479L181.726 122.473C181.726 122.012 181.633 121.6 181.448 121.238C181.266 120.876 181.007 120.59 180.669 120.381C180.335 120.172 179.941 120.068 179.486 120.068C178.986 120.069 178.553 120.194 178.187 120.443C177.825 120.688 177.547 121.008 177.352 121.402C177.157 121.797 177.06 122.219 177.06 122.67L177.061 123.395C177.062 124.013 177.169 124.536 177.383 124.966C177.6 125.392 177.9 125.716 178.284 125.94C178.668 126.159 179.114 126.269 179.621 126.268C179.952 126.268 180.25 126.221 180.516 126.129C180.786 126.033 181.018 125.89 181.213 125.702C181.409 125.51 181.559 125.272 181.665 124.988L182.88 125.327C182.753 125.739 182.538 126.102 182.237 126.415C181.936 126.724 181.563 126.966 181.119 127.14C180.676 127.311 180.177 127.397 179.623 127.398ZM189.312 127.216L189.299 116.307L195.883 116.299L195.884 117.471L190.622 117.477L190.626 121.163L195.548 121.158L195.549 122.329L190.627 122.335L190.631 126.043L195.979 126.036L195.981 127.208L189.312 127.216ZM199.034 119.023L200.998 122.366L202.955 119.018L204.404 119.017L201.766 123.111L204.413 127.198L202.964 127.2L201 124.028L199.044 127.205L197.595 127.206L200.19 123.112L197.585 119.025L199.034 119.023ZM206.21 130.265L206.197 119.015L207.412 119.013L207.413 120.313L207.562 120.313C207.655 120.171 207.782 119.989 207.945 119.769C208.112 119.545 208.35 119.346 208.658 119.172C208.971 118.994 209.393 118.904 209.926 118.904C210.615 118.903 211.222 119.074 211.748 119.418C212.274 119.762 212.685 120.25 212.98 120.882C213.276 121.514 213.424 122.259 213.425 123.118C213.426 123.985 213.28 124.736 212.986 125.372C212.692 126.005 212.284 126.495 211.762 126.844C211.24 127.189 210.639 127.362 209.957 127.363C209.431 127.363 209.01 127.277 208.694 127.103C208.378 126.926 208.134 126.725 207.964 126.502C207.793 126.275 207.661 126.087 207.569 125.938L207.462 125.938L207.467 130.263L206.21 130.265ZM207.438 123.104C207.439 123.722 207.53 124.267 207.711 124.739C207.893 125.208 208.158 125.575 208.506 125.841C208.855 126.103 209.281 126.234 209.785 126.233C210.311 126.233 210.749 126.094 211.1 125.816C211.455 125.536 211.721 125.159 211.898 124.686C212.079 124.21 212.169 123.681 212.168 123.099C212.167 122.523 212.078 122.005 211.9 121.544C211.725 121.079 211.46 120.711 211.105 120.442C210.753 120.169 210.311 120.033 209.778 120.033C209.267 120.034 208.837 120.164 208.489 120.424C208.142 120.68 207.879 121.039 207.702 121.5C207.525 121.959 207.437 122.493 207.438 123.104ZM218.778 127.352C217.99 127.353 217.309 127.18 216.737 126.833C216.169 126.482 215.73 125.992 215.42 125.364C215.114 124.732 214.96 123.997 214.959 123.159C214.958 122.321 215.11 121.582 215.415 120.943C215.723 120.3 216.152 119.799 216.702 119.439C217.256 119.076 217.902 118.895 218.64 118.894C219.066 118.893 219.487 118.964 219.903 119.105C220.319 119.247 220.697 119.477 221.038 119.796C221.38 120.112 221.652 120.531 221.855 121.053C222.058 121.574 222.16 122.217 222.161 122.981L222.161 123.513L215.855 123.52L215.853 122.434L220.882 122.428C220.881 121.966 220.788 121.555 220.603 121.193C220.422 120.831 220.162 120.545 219.825 120.336C219.49 120.127 219.096 120.022 218.642 120.023C218.141 120.024 217.708 120.148 217.342 120.397C216.98 120.643 216.702 120.963 216.507 121.357C216.312 121.751 216.215 122.174 216.216 122.625L216.217 123.35C216.217 123.968 216.324 124.491 216.538 124.921C216.755 125.346 217.056 125.671 217.439 125.894C217.823 126.114 218.269 126.224 218.777 126.223C219.107 126.223 219.405 126.176 219.671 126.084C219.941 125.987 220.174 125.845 220.369 125.657C220.564 125.465 220.714 125.227 220.821 124.942L222.036 125.282C221.908 125.694 221.694 126.056 221.392 126.369C221.091 126.678 220.718 126.92 220.274 127.095C219.831 127.266 219.332 127.352 218.778 127.352ZM224.078 127.176L224.068 118.994L225.283 118.993L225.284 120.228L225.37 120.228C225.518 119.823 225.788 119.494 226.178 119.242C226.568 118.989 227.009 118.863 227.499 118.862C227.591 118.862 227.706 118.864 227.845 118.867C227.983 118.87 228.088 118.876 228.159 118.883L228.161 120.161C228.118 120.15 228.02 120.135 227.868 120.113C227.718 120.089 227.56 120.077 227.394 120.077C226.996 120.077 226.641 120.161 226.328 120.328C226.02 120.492 225.775 120.72 225.594 121.011C225.417 121.299 225.329 121.627 225.329 121.997L225.335 127.174L224.078 127.176ZM229.659 127.169L229.649 118.987L230.907 118.986L230.916 127.168L229.659 127.169ZM230.287 117.623C230.042 117.623 229.831 117.54 229.653 117.373C229.479 117.207 229.391 117.006 229.391 116.772C229.391 116.537 229.478 116.337 229.651 116.17C229.829 116.003 230.04 115.919 230.285 115.919C230.53 115.918 230.74 116.001 230.914 116.168C231.092 116.335 231.181 116.535 231.181 116.77C231.181 117.004 231.093 117.205 230.915 117.372C230.742 117.539 230.532 117.623 230.287 117.623ZM236.649 127.332C235.861 127.333 235.18 127.159 234.608 126.812C234.04 126.461 233.601 125.972 233.291 125.343C232.985 124.712 232.831 123.977 232.83 123.139C232.829 122.301 232.981 121.562 233.286 120.922C233.594 120.279 234.023 119.778 234.573 119.419C235.127 119.056 235.773 118.874 236.511 118.873C236.938 118.872 237.358 118.943 237.774 119.085C238.19 119.226 238.568 119.457 238.909 119.776C239.251 120.091 239.523 120.51 239.726 121.032C239.929 121.554 240.031 122.196 240.032 122.96L240.032 123.492L233.726 123.5L233.724 122.413L238.753 122.407C238.752 121.946 238.659 121.534 238.474 121.172C238.293 120.81 238.033 120.524 237.696 120.315C237.362 120.106 236.967 120.002 236.513 120.002C236.012 120.003 235.579 120.128 235.213 120.377C234.852 120.622 234.573 120.942 234.378 121.336C234.183 121.731 234.086 122.153 234.087 122.604L234.088 123.329C234.088 123.947 234.195 124.47 234.409 124.9C234.626 125.326 234.927 125.65 235.31 125.874C235.694 126.093 236.14 126.203 236.648 126.202C236.978 126.202 237.276 126.155 237.542 126.063C237.812 125.967 238.045 125.824 238.24 125.636C238.435 125.444 238.586 125.206 238.692 124.922L239.907 125.261C239.779 125.673 239.565 126.036 239.263 126.349C238.962 126.658 238.589 126.9 238.146 127.074C237.702 127.245 237.203 127.331 236.649 127.332ZM243.2 122.232L243.206 127.154L241.949 127.155L241.939 118.973L243.154 118.972L243.155 120.25L243.262 120.25C243.453 119.834 243.744 119.5 244.134 119.248C244.525 118.992 245.029 118.863 245.647 118.862C246.201 118.862 246.686 118.975 247.101 119.202C247.517 119.425 247.841 119.765 248.072 120.223C248.303 120.678 248.419 121.253 248.42 121.949L248.426 127.148L247.169 127.149L247.163 122.035C247.162 121.393 246.995 120.892 246.661 120.534C246.327 120.172 245.868 119.991 245.286 119.992C244.885 119.993 244.526 120.08 244.21 120.254C243.898 120.429 243.651 120.683 243.471 121.017C243.29 121.351 243.2 121.756 243.2 122.232ZM254.047 127.312C253.28 127.312 252.62 127.132 252.065 126.77C251.511 126.409 251.084 125.91 250.785 125.275C250.486 124.64 250.336 123.914 250.335 123.097C250.334 122.266 250.486 121.533 250.791 120.897C251.099 120.257 251.528 119.758 252.078 119.398C252.632 119.035 253.278 118.854 254.016 118.853C254.592 118.852 255.11 118.958 255.572 119.171C256.034 119.383 256.413 119.681 256.708 120.064C257.003 120.447 257.186 120.895 257.258 121.406L256.001 121.407C255.904 121.034 255.691 120.704 255.36 120.417C255.033 120.126 254.593 119.981 254.039 119.982C253.549 119.983 253.119 120.111 252.75 120.367C252.385 120.62 252.099 120.977 251.894 121.439C251.692 121.897 251.591 122.435 251.592 123.053C251.593 123.685 251.693 124.235 251.892 124.704C252.095 125.172 252.38 125.536 252.746 125.795C253.116 126.054 253.549 126.183 254.046 126.182C254.373 126.182 254.669 126.125 254.935 126.011C255.202 125.897 255.427 125.733 255.611 125.52C255.796 125.307 255.927 125.051 256.005 124.752L257.262 124.751C257.191 125.234 257.016 125.669 256.736 126.057C256.459 126.44 256.092 126.746 255.634 126.974C255.18 127.198 254.651 127.311 254.047 127.312ZM262.533 127.302C261.744 127.303 261.064 127.129 260.492 126.782C259.924 126.431 259.484 125.942 259.175 125.313C258.869 124.682 258.715 123.947 258.714 123.109C258.713 122.271 258.865 121.532 259.17 120.892C259.478 120.249 259.907 119.748 260.457 119.389C261.01 119.026 261.657 118.844 262.395 118.843C262.821 118.843 263.242 118.913 263.658 119.055C264.074 119.196 264.452 119.427 264.793 119.746C265.135 120.061 265.407 120.48 265.61 121.002C265.813 121.524 265.915 122.166 265.916 122.93L265.916 123.463L259.609 123.47L259.608 122.383L264.637 122.377C264.636 121.916 264.543 121.504 264.358 121.142C264.177 120.78 263.917 120.494 263.579 120.285C263.245 120.076 262.851 119.972 262.397 119.972C261.896 119.973 261.463 120.098 261.097 120.347C260.735 120.592 260.457 120.912 260.262 121.306C260.067 121.701 259.97 122.124 259.971 122.575L259.971 123.299C259.972 123.917 260.079 124.441 260.293 124.87C260.51 125.296 260.81 125.62 261.194 125.844C261.578 126.063 262.024 126.173 262.532 126.172C262.862 126.172 263.16 126.126 263.426 126.033C263.696 125.937 263.928 125.794 264.124 125.606C264.319 125.414 264.469 125.176 264.576 124.892L265.79 125.231C265.663 125.643 265.449 126.006 265.147 126.319C264.846 126.628 264.473 126.87 264.029 127.044C263.586 127.215 263.087 127.301 262.533 127.302ZM269.706 125.631L269.621 126.207C269.562 126.612 269.47 127.045 269.346 127.507C269.226 127.969 269.1 128.404 268.969 128.812C268.838 129.221 268.73 129.546 268.645 129.788L267.687 129.789C267.733 129.561 267.793 129.261 267.867 128.888C267.941 128.515 268.015 128.098 268.089 127.636C268.167 127.178 268.23 126.709 268.279 126.23L268.342 125.633L269.706 125.631ZM276.861 116.206L280.11 125.385L280.238 125.385L283.466 116.198L284.851 116.196L280.858 127.11L279.494 127.112L275.476 116.207L276.861 116.206ZM288.955 127.271C288.216 127.272 287.568 127.097 287.01 126.746C286.455 126.395 286.022 125.904 285.708 125.272C285.399 124.64 285.243 123.902 285.242 123.057C285.241 122.204 285.395 121.46 285.703 120.824C286.015 120.188 286.448 119.694 287.001 119.342C287.558 118.99 288.206 118.813 288.945 118.812C289.683 118.811 290.33 118.986 290.884 119.337C291.442 119.688 291.876 120.181 292.186 120.817C292.499 121.452 292.656 122.196 292.657 123.048C292.658 123.893 292.503 124.632 292.191 125.265C291.883 125.897 291.45 126.389 290.893 126.742C290.339 127.094 289.693 127.27 288.955 127.271ZM288.953 126.142C289.514 126.141 289.976 125.997 290.338 125.709C290.7 125.421 290.967 125.042 291.141 124.573C291.314 124.104 291.401 123.596 291.4 123.05C291.399 122.503 291.312 121.993 291.137 121.521C290.963 121.049 290.694 120.668 290.332 120.377C289.969 120.086 289.507 119.941 288.946 119.942C288.385 119.942 287.924 120.088 287.562 120.38C287.2 120.672 286.932 121.054 286.759 121.526C286.585 121.999 286.499 122.508 286.499 123.055C286.5 123.602 286.588 124.11 286.762 124.578C286.937 125.047 287.205 125.425 287.568 125.712C287.93 125.999 288.392 126.143 288.953 126.142ZM298.13 118.908L298.131 119.974L293.891 119.978L293.889 118.913L298.13 118.908ZM295.123 116.951L296.38 116.95L296.389 124.748C296.39 125.103 296.441 125.37 296.544 125.547C296.651 125.721 296.786 125.838 296.95 125.898C297.117 125.955 297.293 125.983 297.477 125.983C297.616 125.983 297.729 125.975 297.818 125.961C297.907 125.943 297.978 125.929 298.031 125.918L298.288 127.047C298.203 127.079 298.084 127.111 297.931 127.144C297.779 127.179 297.585 127.197 297.351 127.197C296.996 127.198 296.648 127.122 296.306 126.97C295.969 126.817 295.688 126.585 295.464 126.273C295.243 125.961 295.133 125.567 295.132 125.091L295.123 116.951ZM300.03 127.088L300.02 118.906L301.235 118.905L301.236 120.14L301.322 120.14C301.47 119.735 301.74 119.407 302.13 119.154C302.52 118.901 302.961 118.775 303.451 118.774C303.543 118.774 303.658 118.776 303.797 118.779C303.935 118.783 304.04 118.788 304.111 118.795L304.113 120.073C304.07 120.063 303.972 120.047 303.82 120.026C303.671 120.001 303.513 119.989 303.346 119.989C302.948 119.989 302.593 120.073 302.281 120.24C301.972 120.404 301.727 120.632 301.546 120.923C301.369 121.211 301.281 121.54 301.281 121.909L301.287 127.086L300.03 127.088ZM308.793 127.248C308.004 127.249 307.324 127.076 306.752 126.728C306.183 126.378 305.744 125.888 305.434 125.26C305.128 124.628 304.975 123.893 304.974 123.055C304.973 122.217 305.125 121.478 305.429 120.839C305.738 120.196 306.167 119.694 306.717 119.335C307.27 118.972 307.916 118.79 308.655 118.79C309.081 118.789 309.502 118.86 309.918 119.001C310.333 119.143 310.712 119.373 311.053 119.692C311.394 120.008 311.666 120.427 311.869 120.948C312.072 121.47 312.174 122.113 312.175 122.876L312.176 123.409L305.869 123.416L305.868 122.33L310.896 122.324C310.896 121.862 310.803 121.45 310.618 121.088C310.436 120.726 310.177 120.441 309.839 120.232C309.505 120.023 309.111 119.918 308.656 119.919C308.156 119.919 307.722 120.044 307.357 120.293C306.995 120.539 306.717 120.859 306.522 121.253C306.327 121.647 306.23 122.07 306.23 122.521L306.231 123.245C306.232 123.863 306.339 124.387 306.553 124.816C306.77 125.242 307.07 125.567 307.454 125.79C307.838 126.01 308.283 126.119 308.791 126.119C309.122 126.119 309.42 126.072 309.686 125.979C309.956 125.883 310.188 125.741 310.383 125.552C310.578 125.36 310.729 125.122 310.835 124.838L312.05 125.178C311.923 125.59 311.708 125.952 311.407 126.265C311.105 126.574 310.733 126.816 310.289 126.991C309.845 127.162 309.347 127.248 308.793 127.248ZM320.719 127.256C320.201 127.256 319.73 127.159 319.307 126.964C318.884 126.766 318.548 126.48 318.299 126.108C318.05 125.732 317.926 125.277 317.925 124.745C317.924 124.276 318.016 123.896 318.201 123.604C318.385 123.309 318.632 123.078 318.94 122.911C319.249 122.744 319.59 122.619 319.963 122.537C320.339 122.451 320.717 122.383 321.097 122.333C321.594 122.269 321.997 122.22 322.306 122.188C322.618 122.152 322.846 122.093 322.988 122.012C323.133 121.93 323.206 121.788 323.205 121.585L323.205 121.543C323.205 121.017 323.06 120.609 322.772 120.318C322.488 120.027 322.056 119.882 321.478 119.883C320.877 119.883 320.407 120.015 320.066 120.278C319.726 120.542 319.486 120.822 319.348 121.121L318.155 120.696C318.367 120.199 318.651 119.811 319.006 119.534C319.364 119.253 319.754 119.057 320.177 118.947C320.603 118.832 321.022 118.775 321.434 118.775C321.696 118.774 321.998 118.806 322.339 118.87C322.684 118.93 323.016 119.055 323.336 119.247C323.659 119.438 323.928 119.727 324.141 120.114C324.355 120.501 324.462 121.019 324.463 121.669L324.469 127.06L323.212 127.061L323.21 125.953L323.147 125.953C323.062 126.131 322.92 126.321 322.721 126.524C322.522 126.726 322.258 126.899 321.928 127.041C321.598 127.184 321.195 127.255 320.719 127.256ZM320.91 126.126C321.407 126.126 321.826 126.027 322.166 125.832C322.511 125.636 322.769 125.384 322.943 125.074C323.12 124.765 323.209 124.44 323.208 124.099L323.207 122.949C323.154 123.013 323.037 123.072 322.856 123.125C322.678 123.175 322.472 123.22 322.238 123.259C322.007 123.295 321.782 123.327 321.562 123.356C321.345 123.381 321.169 123.402 321.034 123.42C320.708 123.463 320.402 123.533 320.118 123.629C319.838 123.722 319.611 123.862 319.437 124.05C319.267 124.235 319.182 124.488 319.182 124.807C319.183 125.244 319.345 125.574 319.668 125.797C319.995 126.017 320.409 126.127 320.91 126.126ZM333.151 118.868L330.135 127.053L328.857 127.054L325.822 118.876L327.185 118.875L329.451 125.392L329.537 125.392L331.788 118.869L333.151 118.868ZM337.958 127.214C337.169 127.215 336.489 127.042 335.917 126.695C335.348 126.344 334.909 125.854 334.599 125.226C334.293 124.594 334.14 123.859 334.139 123.021C334.138 122.183 334.29 121.444 334.594 120.805C334.903 120.162 335.332 119.661 335.882 119.301C336.435 118.938 337.081 118.757 337.82 118.756C338.246 118.755 338.667 118.826 339.083 118.967C339.498 119.109 339.877 119.339 340.218 119.659C340.559 119.974 340.831 120.393 341.034 120.915C341.237 121.436 341.339 122.079 341.34 122.843L341.341 123.375L335.034 123.383L335.033 122.296L340.061 122.29C340.061 121.828 339.968 121.417 339.783 121.055C339.601 120.693 339.342 120.407 339.004 120.198C338.67 119.989 338.276 119.884 337.821 119.885C337.321 119.886 336.887 120.01 336.522 120.259C336.16 120.505 335.882 120.825 335.687 121.219C335.492 121.614 335.395 122.036 335.395 122.487L335.396 123.212C335.397 123.83 335.504 124.353 335.718 124.783C335.935 125.209 336.235 125.533 336.619 125.756C337.003 125.976 337.448 126.086 337.956 126.085C338.287 126.085 338.585 126.038 338.851 125.946C339.121 125.849 339.353 125.707 339.548 125.519C339.743 125.327 339.894 125.089 340 124.804L341.215 125.144C341.088 125.556 340.873 125.918 340.572 126.231C340.27 126.541 339.898 126.782 339.454 126.957C339.01 127.128 338.512 127.214 337.958 127.214ZM344.509 122.114L344.515 127.036L343.257 127.038L343.248 118.856L344.462 118.855L344.464 120.133L344.57 120.133C344.762 119.717 345.053 119.383 345.443 119.13C345.833 118.874 346.337 118.746 346.955 118.745C347.509 118.745 347.994 118.858 348.41 119.084C348.826 119.308 349.149 119.648 349.38 120.106C349.612 120.56 349.728 121.135 349.729 121.831L349.735 127.03L348.478 127.032L348.472 121.918C348.471 121.275 348.303 120.775 347.969 120.417C347.635 120.055 347.177 119.874 346.594 119.875C346.193 119.875 345.835 119.963 345.519 120.137C345.206 120.311 344.96 120.566 344.779 120.9C344.598 121.234 344.508 121.639 344.509 122.114ZM352.032 127.028L352.022 118.846L353.28 118.844L353.289 127.026L352.032 127.028ZM352.66 117.481C352.415 117.482 352.204 117.399 352.026 117.232C351.852 117.065 351.764 116.865 351.764 116.63C351.764 116.396 351.851 116.195 352.024 116.028C352.202 115.861 352.413 115.777 352.658 115.777C352.903 115.777 353.113 115.86 353.287 116.027C353.465 116.193 353.554 116.394 353.554 116.628C353.554 116.863 353.466 117.063 353.288 117.23C353.114 117.397 352.905 117.481 352.66 117.481ZM355.591 127.024L355.582 118.842L356.796 118.84L356.798 120.076L356.883 120.076C357.032 119.671 357.301 119.342 357.692 119.09C358.082 118.837 358.522 118.71 359.012 118.71C359.105 118.71 359.22 118.711 359.358 118.715C359.497 118.718 359.602 118.723 359.673 118.73L359.674 120.009C359.632 119.998 359.534 119.982 359.381 119.961C359.232 119.937 359.074 119.924 358.907 119.925C358.509 119.925 358.154 120.009 357.842 120.176C357.533 120.34 357.289 120.567 357.108 120.859C356.931 121.147 356.842 121.475 356.843 121.845L356.849 127.022L355.591 127.024Z" fill="#BB8584"/>
<path d="M138.455 104V34.1818H180.591V41.6818H146.909V65.2727H178.409V72.7727H146.909V96.5H181.136V104H138.455ZM243.557 56C242.807 53.7045 241.818 51.6477 240.591 49.8295C239.386 47.9886 237.943 46.4204 236.261 45.125C234.602 43.8295 232.716 42.8409 230.602 42.1591C228.489 41.4772 226.17 41.1363 223.648 41.1363C219.511 41.1363 215.75 42.2045 212.364 44.3409C208.977 46.4772 206.284 49.625 204.284 53.7841C202.284 57.9432 201.284 63.0454 201.284 69.0909C201.284 75.1363 202.295 80.2386 204.318 84.3977C206.341 88.5568 209.08 91.7045 212.534 93.8409C215.989 95.9772 219.875 97.0454 224.193 97.0454C228.193 97.0454 231.716 96.1932 234.761 94.4886C237.83 92.7613 240.216 90.3295 241.92 87.1932C243.648 84.0341 244.511 80.3182 244.511 76.0454L247.102 76.5909H226.102V69.0909H252.693V76.5909C252.693 82.3409 251.466 87.3409 249.011 91.5909C246.58 95.8409 243.216 99.1363 238.92 101.477C234.648 103.795 229.739 104.955 224.193 104.955C218.011 104.955 212.58 103.5 207.898 100.591C203.239 97.6818 199.602 93.5454 196.989 88.1818C194.398 82.8182 193.102 76.4545 193.102 69.0909C193.102 63.5682 193.841 58.6022 195.318 54.1932C196.818 49.7613 198.932 45.9886 201.659 42.875C204.386 39.7613 207.614 37.375 211.341 35.7159C215.068 34.0568 219.17 33.2272 223.648 33.2272C227.33 33.2272 230.761 33.7841 233.943 34.8977C237.148 35.9886 240 37.5454 242.5 39.5682C245.023 41.5682 247.125 43.9659 248.807 46.7613C250.489 49.5341 251.648 52.6136 252.284 56H243.557ZM267.173 104V34.1818H309.31V41.6818H275.628V65.2727H307.128V72.7727H275.628V96.5H309.855V104H267.173ZM324.548 104V34.1818H366.685V41.6818H333.003V65.2727H364.503V72.7727H333.003V96.5H367.23V104H324.548Z" fill="#4B5485"/>
<path d="M1.00001 34L66 0L126 34L125.5 104L1.00001 34Z" fill="#D9D9D9"/>
<path d="M125.588 103.697L60.5882 137.697L0.588272 103.697L1.08829 33.6974L125.588 103.697Z" fill="#D9D9D9"/>
<path d="M13.1576 74.8521L38.0357 63L61 74.8521L60.8086 99.2534L13.1576 74.8521Z" fill="#B2473E"/>
<path d="M60.8424 99.1479L35.9644 111L13 99.1479L13.1914 74.7466L60.8424 99.1479Z" fill="#B2473E"/>
<path d="M68.1576 74.8521L93.0357 63L116 74.8521L115.809 99.2534L68.1576 74.8521Z" fill="#3E467D"/>
<path d="M115.842 99.1479L90.9644 111L68 99.1479L68.1914 74.7466L115.842 99.1479Z" fill="#3E467D"/>
<path d="M41.1576 29.8521L66.0357 18L89 29.8521L88.8086 54.2534L41.1576 29.8521Z" fill="#739ACA"/>
<path d="M88.8424 54.1479L63.9644 66L41 54.1479L41.1914 29.7466L88.8424 54.1479Z" fill="#739ACA"/>
</svg>
